<svg xmlns="http://www.w3.org/2000/svg" width="120" height="32" viewBox="0 0 120 32">
    <defs>
        <linearGradient id="a" x1="2.196%" x2="93.115%" y1=".688%" y2="85.875%">
            <stop offset="0%" stop-color="#04B7CB"/>
            <stop offset="3%" stop-color="#04B7CC"/>
            <stop offset="17%" stop-color="#04B7D6"/>
            <stop offset="41%" stop-color="#04B7F2"/>
            <stop offset="51%" stop-color="#04B7FF"/>
            <stop offset="78%" stop-color="#0495EC"/>
            <stop offset="99%" stop-color="#0476DB"/>
        </linearGradient>
        <linearGradient id="b" x1="65.786%" x2="-28.708%" y1="16.176%" y2="380.031%">
            <stop offset="0%" stop-color="#04B7CB"/>
            <stop offset="14%" stop-color="#04B7D4"/>
            <stop offset="38%" stop-color="#04B7EE"/>
            <stop offset="51%" stop-color="#04B7FF"/>
            <stop offset="78%" stop-color="#0495EC"/>
            <stop offset="99%" stop-color="#0476DB"/>
        </linearGradient>
        <linearGradient id="c" x1="93.449%" x2="19.652%" y1="-30.025%" y2="96.941%">
            <stop offset="0%" stop-color="#04B7CB"/>
            <stop offset="17%" stop-color="#0DBACF"/>
            <stop offset="45%" stop-color="#27C1DA"/>
            <stop offset="81%" stop-color="#50CDEC"/>
            <stop offset="100%" stop-color="#68D4F7"/>
        </linearGradient>
    </defs>
    <g fill="none" fill-rule="evenodd">
        <path fill="#272628" d="M56.97 23.37c-.56.14-1.29.287-2.19.44a18 18 0 0 1-3 .23 6.61 6.61 0 0 1-2.54-.43 4.08 4.08 0 0 1-1.64-1.19 4.67 4.67 0 0 1-.88-1.83 9.59 9.59 0 0 1-.27-2.33v-7h2.92v6.54a5.24 5.24 0 0 0 .6 2.87 2.32 2.32 0 0 0 2.06.86h1.12a6 6 0 0 0 .88-.12V11.27h2.94v12.1zM65.31 15.09l2.66-3.82h3.06l-4.24 6a73.542 73.542 0 0 1 2.54 3.34 27.45 27.45 0 0 1 2 3.17h-3.15a9.5 9.5 0 0 0-.57-1l-.74-1.05a32.66 32.66 0 0 0-1.67-2.18 24.06 24.06 0 0 0-1.66 2.15 32.98 32.98 0 0 0-1.33 2.03h-3a14.9 14.9 0 0 1 .88-1.51 39.95 39.95 0 0 1 1.12-1.63c.4-.553.81-1.107 1.23-1.66.42-.553.837-1.08 1.25-1.58l-4.28-6.1h3.21l2.69 3.84zM78.74 5.23a7.92 7.92 0 0 1 1.78.18c.393.084.78.19 1.16.32l-.56 2.39a4.64 4.64 0 0 0-1-.31 5.48 5.48 0 0 0-1.15-.08 3.06 3.06 0 0 0-1.18.2c-.3.12-.564.312-.77.56-.2.255-.34.553-.41.87a4.83 4.83 0 0 0-.12 1.11v.83h2.48v2.41h-2.45v10.02H73.6V10.38a5.33 5.33 0 0 1 1.28-3.78 5 5 0 0 1 3.86-1.37M92.18 17.5a8 8 0 0 1-.43 2.7 6 6 0 0 1-1.23 2.08 5.54 5.54 0 0 1-1.92 1.34 6.25 6.25 0 0 1-2.47.48 6.16 6.16 0 0 1-2.46-.48 5.55 5.55 0 0 1-1.9-1.34 6.11 6.11 0 0 1-1.24-2.08 7.8 7.8 0 0 1-.45-2.7 7.7 7.7 0 0 1 .45-2.69 6 6 0 0 1 1.24-2.08 5.55 5.55 0 0 1 1.92-1.33 6.24 6.24 0 0 1 2.44-.47 6.33 6.33 0 0 1 2.45.47 5.41 5.41 0 0 1 1.91 1.33 6.14 6.14 0 0 1 1.24 2.07 7.7 7.7 0 0 1 .45 2.69m-3 0a4.84 4.84 0 0 0-.81-2.95 2.88 2.88 0 0 0-4.51 0 4.84 4.84 0 0 0-.81 2.95 4.93 4.93 0 0 0 .81 3 2.86 2.86 0 0 0 4.51 0 4.94 4.94 0 0 0 .81-3M104.58 7.61a1.65 1.65 0 0 1-.53 1.29 1.81 1.81 0 0 1-1.25.48 1.84 1.84 0 0 1-1.28-.48 1.65 1.65 0 0 1-.55-1.29 1.67 1.67 0 0 1 .53-1.31 1.85 1.85 0 0 1 1.28-.48 1.82 1.82 0 0 1 1.25.48c.368.334.57.813.55 1.31zm-3.23 16.12h2.92V11.27h-2.92v12.46zM119.07 17.5a8 8 0 0 1-.43 2.7 6 6 0 0 1-1.23 2.08 5.54 5.54 0 0 1-1.92 1.34 6.25 6.25 0 0 1-2.47.48 6.16 6.16 0 0 1-2.46-.48 5.55 5.55 0 0 1-1.9-1.34 6.11 6.11 0 0 1-1.24-2.08 7.8 7.8 0 0 1-.45-2.7 7.7 7.7 0 0 1 .45-2.69 6 6 0 0 1 1.24-2.08 5.55 5.55 0 0 1 1.92-1.33 6.24 6.24 0 0 1 2.44-.47 6.33 6.33 0 0 1 2.45.47 5.41 5.41 0 0 1 1.91 1.33 6.14 6.14 0 0 1 1.24 2.07 7.7 7.7 0 0 1 .45 2.69m-3 0a4.84 4.84 0 0 0-.81-2.95 2.88 2.88 0 0 0-4.51 0 4.84 4.84 0 0 0-.81 2.95 4.93 4.93 0 0 0 .81 3 2.86 2.86 0 0 0 4.51 0 4.94 4.94 0 0 0 .81-3M95.03 23.73h2.94V6.2h-2.94z"/>
        <path d="M36.26 14.11L5.82 4.39l15.32 22.77 3.95-14.91 2.39.77L24 26.2z"/>
        <path d="M24.02 26.14l-.02.06 12.26-12.09L5.82 4.39 20 25.46l1.14 1.7 3.95-14.91 2.39.77-3.46 13.12 3.28-3.2"/>
        <path fill="url(#a)" fill-rule="nonzero" d="M41.18 12.91l-5.45-1.79L.97.04l21.52 32 19-18.72-.31-.41zM24.97 26.19v-.05l-2.19 2.13-1.81-2.82L6.82 4.39l30.44 9.71-12.29 12.09z" transform="translate(-1)"/>
        <path fill="url(#b)" fill-rule="nonzero" d="M29.5 0l-1.94 6.99 2.4.77.74-2.68 5.65 6.24-.62-.2 5.45 1.8z" transform="translate(-1)"/>
        <path fill="url(#c)" fill-rule="nonzero" d="M26.09 12.25l-3.95 14.91-1.14-1.7 1.83 2.81 2.19-2.13 3.46-13.12z" transform="translate(-1)"/>
    </g>
</svg>
